<svg width="25" height="25" fill="none" xmlns="http://www.w3.org/2000/svg"><path d="M12.5 25c-3.339 0-6.478-1.3-8.839-3.661A12.419 12.419 0 010 12.5c0-3.339 1.3-6.478 3.661-8.839A12.419 12.419 0 0112.5 0c3.339 0 6.478 1.3 8.839 3.661A12.418 12.418 0 0125 12.5c0 3.339-1.3 6.478-3.661 8.839A12.418 12.418 0 0112.5 25z" fill="#DCF4FF"/><path d="M21.339 3.661A12.419 12.419 0 0012.5 0v25c3.339 0 6.478-1.3 8.839-3.661A12.418 12.418 0 0025 12.5c0-3.339-1.3-6.478-3.661-8.839z" fill="#CCEFFF"/><path d="M3.905 21.576a13.738 13.738 0 003.39-9.075c0-3.372-1.197-6.559-3.39-9.076A12.419 12.419 0 000 12.5a12.418 12.418 0 003.904 9.076z" fill="#A2E13A"/><path d="M21.339 3.661l-.021-.02a13.736 13.736 0 00-3.203 8.854c0 3.276 1.131 6.377 3.207 8.86l.017-.016A12.418 12.418 0 0025 12.5c0-3.339-1.3-6.478-3.661-8.839z" fill="#506D20"/><path d="M16.65 12.495a15.19 15.19 0 013.572-9.826A12.405 12.405 0 0012.5 0a12.4 12.4 0 00-7.476 2.48A15.191 15.191 0 018.76 12.5c0 3.721-1.319 7.24-3.735 10.02A12.406 12.406 0 0012.5 25c2.838 0 5.532-.94 7.726-2.672a15.19 15.19 0 01-3.576-9.833z" fill="#506D20"/><path d="M16.65 12.495a15.19 15.19 0 013.572-9.826A12.405 12.405 0 0012.5 0v25c2.838 0 5.532-.94 7.726-2.672a15.19 15.19 0 01-3.576-9.833z" fill="#506D20"/></svg>