<svg xmlns="http://www.w3.org/2000/svg" width="578.296" height="643.741" viewBox="0 0 153.007 170.323"><path d="M42.29 170.321L0 170.319l8.099-24.862L55.357 130.1z" fill="#229cd8"/><path d="M55.357 130.1l-34.213-24.858L8.098 145.46z" fill="#6b429a"/><path d="M21.144 105.243l42.29-.002-29.208-40.197z" fill="#9f3e91"/><path d="M34.226 65.044l29.208 40.197 13.07-40.22L55.357.012z" fill="#bf1551"/><path d="M55.357.01L97.65 0 76.504 65.022z" fill="#ee2c28"/><path d="M97.651 0l21.131 65.04-29.209 40.2-13.07-40.219z" fill="#ffcd15"/><path d="M153.007 170.323l-42.29-.002-13.066-40.22 47.258 15.355z" fill="#85cdd4"/><path d="M144.909 145.456l-13.046-40.214-34.212 24.859z" fill="#62c57c"/><path d="M131.863 105.242l-13.08-40.202-29.21 40.2z" fill="#abd037"/></svg>