<svg width="30" height="30" xmlns="http://www.w3.org/2000/svg"><path d="M14.992.008C6.712.01.002 6.723.004 15.002c0 2.867.823 5.674 2.37 8.087L.042 29.141a.625.625 0 00.793.813l6.247-2.23c7.027 4.377 16.273 2.228 20.65-4.8 4.377-7.028 2.228-16.273-4.8-20.65a14.991 14.991 0 00-7.94-2.266z"/><path d="M22.139 17.561s-1.53-.75-2.489-1.25c-1.084-.557-2.358.488-2.958 1.083a7.517 7.517 0 01-2.507-1.592 7.512 7.512 0 01-1.592-2.507c.595-.6 1.638-1.874 1.082-2.958-.493-.96-1.249-2.489-1.249-2.49a.625.625 0 00-.557-.344h-1.25a3.764 3.764 0 00-3.123 3.748c0 1.962 2.348 5.73 3.93 7.313 1.583 1.584 5.351 3.93 7.314 3.93a3.764 3.764 0 003.748-3.123v-1.249a.625.625 0 00-.35-.56z" fill="#B0C099"/></svg>